<svg xmlns="http://www.w3.org/2000/svg" viewBox="0 0 256.78 251.67"><title>dangerous</title><g id="Layer_2" data-name="Layer 2"><g id="Layer_1-2" data-name="Layer 1"><path d="M144.18,0c7.08.26,14.47.28,21.8,1.21a64,64,0,0,1,6.68,1.32,99.58,99.58,0,0,1,41.21,20.94,110.15,110.15,0,0,1,20.25,22.43,128,128,0,0,1,19,42.69,118.84,118.84,0,0,1,3.16,19.81c.27,4,.58,7.92.52,11.9a119.19,119.19,0,0,1-3.71,28.28,137.72,137.72,0,0,1-23,47.88,142,142,0,0,1-22.8,24.27,133.41,133.41,0,0,1-41.66,24,125.51,125.51,0,0,1-19.4,5.11c-4.48.81-9,1.28-13.51,1.71-.9.09-1.81.07-2.72.07-2,0-4.09,0-6.13,0a98.64,98.64,0,0,1-21.3-2.17,120.84,120.84,0,0,1-44.21-18.74A135.07,135.07,0,0,1,10.18,172.5a119.85,119.85,0,0,1-7.35-22.62A113.68,113.68,0,0,1,.39,115.72,138,138,0,0,1,9,78.72,114.12,114.12,0,0,1,22.56,53.23a111.42,111.42,0,0,1,17.9-20A123.6,123.6,0,0,1,72.09,13.45,149.32,149.32,0,0,1,96.61,5.33,180,180,0,0,1,128.23.61C133.44.27,138.67.2,144.18,0Zm-17.5,240.69A110,110,0,0,0,147,238.9a120.15,120.15,0,0,0,27-8.18,111.66,111.66,0,0,0,11.86-6,128.49,128.49,0,0,0,19.06-13.68,114.21,114.21,0,0,0,14.4-14.93,120.24,120.24,0,0,0,16.21-26.69,121.75,121.75,0,0,0,6.34-17.95,120.21,120.21,0,0,0,3.15-16c.38-3.15.72-6.32.85-9.49a115.5,115.5,0,0,0-1.24-22.39A116.73,116.73,0,0,0,240,84.8,110,110,0,0,0,230,62.89a117,117,0,0,0-22.44-27.64,105.29,105.29,0,0,0-22.57-15.7,90.94,90.94,0,0,0-20.32-7.69q-2.32-.55-4.61-1.21a2.48,2.48,0,0,1-1.81-2.57c0-.45.11-.9.09-1.34a.7.7,0,0,0-.42-.47A5,5,0,0,0,156.54,6q-5.11-.15-10.21-.25A161.09,161.09,0,0,0,119.52,7.5a178.35,178.35,0,0,0-24.26,5.25,141,141,0,0,0-40,18.52,106,106,0,0,0-20,17.31,96.81,96.81,0,0,0-12.84,18A108.6,108.6,0,0,0,9.51,110.29a116.35,116.35,0,0,0,.39,22.77,124.3,124.3,0,0,0,5.27,23.88,122.06,122.06,0,0,0,12.11,26.19,131.76,131.76,0,0,0,14.44,19.34A120.08,120.08,0,0,0,65.5,222.72a109.87,109.87,0,0,0,24.4,11.93A112.39,112.39,0,0,0,126.69,240.69Z"/><path d="M179.27,157.27c-.11.67-.24,1.21-.27,1.76a105.93,105.93,0,0,1-1.32,11.14,39.62,39.62,0,0,1-4.91,13.7,23,23,0,0,1-6.37,7,24.89,24.89,0,0,1-11.34,4.3,14.1,14.1,0,0,1-8.26-1.54,32.06,32.06,0,0,1-13.38-11.75c-1.73-2.79-3.24-5.72-4.82-8.6-2-3.58-3.89-7.18-5.83-10.77a11.9,11.9,0,0,0-2.18-3,1.34,1.34,0,0,0-1.24-.38,11.78,11.78,0,0,0-1.62.5c-5,1.83-10,3.69-15,5.51-3,1.08-6,2.13-9,3.18a101.61,101.61,0,0,1-20.88,4.67,77.43,77.43,0,0,1-11.55.54,39.28,39.28,0,0,1-14-2.65,37.36,37.36,0,0,1-4.87-2.41c-1.67-1-2.18-2.42-1.6-4.42a10.39,10.39,0,0,1,5.6-6.52,4.38,4.38,0,0,1,2.66-.39c2.13.32,4.26.62,6.38,1s4,.79,6,1.32A44.59,44.59,0,0,0,74,160.67a79.46,79.46,0,0,0,20.09-3.26c5.47-1.51,10.78-3.51,16.15-5.34,5.58-1.9,11.16-3.82,16.82-5.47a74.47,74.47,0,0,1,14.68-2.82,77.37,77.37,0,0,1,15.3.15,122.82,122.82,0,0,1,13.75,2.31,91.31,91.31,0,0,1,33.27,15c1.37,1,2.67,2.11,4,3.21a2.06,2.06,0,0,1,.45,2.5,2.53,2.53,0,0,1-3.6,1.47c-.93-.41-1.84-.88-2.76-1.32-4.61-2.19-9.19-4.44-13.83-6.56-2.47-1.13-5-2-7.58-3A7.6,7.6,0,0,0,179.27,157.27ZM160.7,164c0,.68,0,1.36,0,2-.19,3.57-4.24,6.83-7.45,6.65a3.19,3.19,0,0,1-2.88-2,9.11,9.11,0,0,1-.6-3c-.38-4.48-2-8.59-3.78-12.64a11.19,11.19,0,0,0-.69-1.17,1.53,1.53,0,0,0-1.74-.75q-4.66,1-9.31,2c-.7.15-1,.66-.71,1.22a94.44,94.44,0,0,1,4,10.48c1,2.89,2,5.78,3.31,8.56a22.18,22.18,0,0,0,4,5.91,9.82,9.82,0,0,0,4.58,2.83,20.41,20.41,0,0,0,5.69.93,11.56,11.56,0,0,0,10.27-5.58,23.78,23.78,0,0,0,2.21-4.59,42.16,42.16,0,0,0,2-7.91c.45-2.8.89-5.6,1.34-8.4.18-1.12.39-2.23.58-3.35a.8.8,0,0,0-.45-.83A3.73,3.73,0,0,0,170,154a55.08,55.08,0,0,0-9.4-1.46,7.51,7.51,0,0,0-1,0c-.25,0-.65.48-.61.71q.27,1.33.56,2.65A41.55,41.55,0,0,1,160.7,164Z"/><path d="M76,84a2.38,2.38,0,0,0-1.37-1c-1.65-.75-3.34-1.43-5-2.18s-3.3-1.52-4.89-2.38-2.11-2.13-1.36-4.08a8.94,8.94,0,0,1,8.16-5.13A6.74,6.74,0,0,1,73.8,70c3.31,1.48,6.62,3,10,4.41,3,1.28,2.64,1.42,5-.81,2.64-2.5,5.25-5,7.87-7.52a22.82,22.82,0,0,1,1.73-1.64,8.61,8.61,0,0,1,2-1.23,3.78,3.78,0,0,1,5.11,2.56,7.24,7.24,0,0,1-.37,5A9.64,9.64,0,0,1,103,73.85q-2.07,2-4.21,4c-.75.69-1.55,1.32-2.28,1.94.06.32,0,.6.15.74a11.69,11.69,0,0,0,1.21,1.17c3,2.57,6.06,5.13,9.08,7.71.78.66,1.54,1.35,2.26,2.07a2.51,2.51,0,0,1,.46,3.39,7.76,7.76,0,0,1-5.09,3.68,4.78,4.78,0,0,1-3.92-.62c-1.6-1.08-3.22-2.12-4.8-3.22C93.58,93,91.29,91.38,89,89.73a5,5,0,0,0-2-1.17,2.73,2.73,0,0,0-1.4.9q-2.49,2.32-5,4.65a70.87,70.87,0,0,1-8.68,7.11c-.66.44-1.32.89-2,1.28a7.08,7.08,0,0,1-3.59.91,2.92,2.92,0,0,1-3-2.29,8.6,8.6,0,0,1,.35-5.34A12.89,12.89,0,0,1,68,90.23c1.09-.82,2.23-1.57,3.33-2.37,1.38-1,2.74-2,4.09-3.05A3.32,3.32,0,0,0,76,84Z"/><path d="M170.65,89.66a28.25,28.25,0,0,0-4.4,2.42c-2.09,1.35-4.2,2.69-6.3,4-.48.3-1,.62-1.46.88a10.61,10.61,0,0,1-1.56.68,4.63,4.63,0,0,1-6.16-5.53,7,7,0,0,1,2.36-4,20,20,0,0,1,2.2-1.59c1.72-1.1,3.47-2.15,5.19-3.24.67-.42,1.3-.9,2-1.42a12.17,12.17,0,0,0-1.05-1.4c-1.78-1.75-3.6-3.45-5.37-5.21-1.29-1.27-2.58-2.55-3.79-3.9a2.26,2.26,0,0,1,.21-3.34,7.69,7.69,0,0,1,6.92-2,5.09,5.09,0,0,1,2.63,1.49q1.93,1.92,3.82,3.87c1.74,1.79,3.45,3.6,5.19,5.39.67.69,1.1.73,2.13.24l5.2-2.53a99,99,0,0,1,11.22-4.87l2.25-.76a7.86,7.86,0,0,1,3.7-.24,3.68,3.68,0,0,1,3.11,3.16,4.84,4.84,0,0,1-2,4.78,12.24,12.24,0,0,1-3,1.61c-3.9,1.54-7.79,3.11-11.68,4.68-.7.28-1.5.4-2,1.09a1.62,1.62,0,0,0,.88,1l7.31,4.34c1.27.75,2.55,1.48,3.8,2.26a9.2,9.2,0,0,1,1.35,1,2.67,2.67,0,0,1,.48,3.14,5.09,5.09,0,0,1-1.58,1.75A10.07,10.07,0,0,1,188,99.19a7.11,7.11,0,0,1-5.44-1.36c-3.29-2.41-6.68-4.68-10-7C172,90.44,171.37,90.11,170.65,89.66Z"/></g></g></svg>