<svg xmlns="http://www.w3.org/2000/svg" viewBox="0 0 256.98 256.88"><title>Asset 1</title><g id="Layer_2" data-name="Layer 2"><g id="Layer_1-2" data-name="Layer 1"><path d="M127.76,256.88a145.66,145.66,0,0,1-18.1-1.12,162.88,162.88,0,0,1-16.09-2.81,120.84,120.84,0,0,1-15.31-4.6,126.33,126.33,0,0,1-20.6-9.72,123.72,123.72,0,0,1-11-7.41,111,111,0,0,1-28.28-31.46A122.78,122.78,0,0,1,5,168.57a134.42,134.42,0,0,1-5-33.24C0,130.67,0,126,.3,121.37A141.64,141.64,0,0,1,20.31,58a112.64,112.64,0,0,1,13-17.47,99,99,0,0,1,14.5-13.37A100.85,100.85,0,0,1,84.48,9.87c1.43-.35,2.87-.7,4.28-1.14,4.77-1.48,9.59-2.79,14.46-3.9s9.54-2,14.36-2.77S127.5.92,132.46.34c1.69-.2,3.4-.22,5.1-.26A149.32,149.32,0,0,1,160.35,1c17,2.17,32.94,7.47,47.32,17A96.89,96.89,0,0,1,223.83,31.5a112.89,112.89,0,0,1,16.3,21.74,119.79,119.79,0,0,1,13.53,35.11,145.13,145.13,0,0,1,3,20.87,129.82,129.82,0,0,1,.28,13.27c-.12,3.63-.37,7.26-.71,10.87a161.53,161.53,0,0,1-12.55,48.57,147,147,0,0,1-15,26.66,101.85,101.85,0,0,1-11.06,12.92,115.44,115.44,0,0,1-36.91,24.56,127.42,127.42,0,0,1-25,7.77,125.93,125.93,0,0,1-20.58,2.68C132.32,256.6,129.49,256.79,127.76,256.88ZM68,23.21c-1.1.56-2,1-2.9,1.49-1.88,1.06-3.76,2.12-5.59,3.25A91.45,91.45,0,0,0,39.2,45c-12,13.46-20,29.08-24.9,46.38a127.81,127.81,0,0,0-4.16,21.35c-.43,4.18-.81,8.36-.89,12.56a133.15,133.15,0,0,0,4,35.41,115.62,115.62,0,0,0,17.34,38.23,101.56,101.56,0,0,0,23.61,24.32,117.76,117.76,0,0,0,15.68,9.56,130.18,130.18,0,0,0,17.87,7.52,139,139,0,0,0,21.82,5.24A136.39,136.39,0,0,0,133,247.24c1.93,0,3.85-.26,5.78-.32a97.26,97.26,0,0,0,12.85-1.42,122.77,122.77,0,0,0,28.08-8,106.82,106.82,0,0,0,24.37-14.13,95.09,95.09,0,0,0,17.26-17.79,106.29,106.29,0,0,0,9.29-15,149.09,149.09,0,0,0,10.94-27.82,139.44,139.44,0,0,0,4.34-19.94c.61-4.49,1.24-9,1.48-13.53a135,135,0,0,0-1-26.83,121.41,121.41,0,0,0-5.07-21.15,107.74,107.74,0,0,0-14.16-27.81,104.25,104.25,0,0,0-23.47-24,95,95,0,0,0-32.79-15.35,114.63,114.63,0,0,0-22.81-3.72,175,175,0,0,0-19.75.13,5.65,5.65,0,0,0-1.35.14,2.51,2.51,0,0,0-1.13.67c-.44.51-.7,1.16-1.11,1.7a3.66,3.66,0,0,1-3.22,1.58c-1.59-.08-3.18-.06-4.76-.19a108.89,108.89,0,0,0-11.58-.05,13.44,13.44,0,0,0-3,.34c-4.28,1.12-8.58,2.14-12.81,3.48-4.87,1.54-9.71,3.14-14.5,4.94-1.27.48-2.59.84-3.89,1.23a2,2,0,0,1-1.63-.27C68.92,23.86,68.56,23.59,68,23.21Z"/><path d="M44.63,105.17c-.69.23-1.46.42-2.18.73a39.61,39.61,0,0,1-6.21,1.78,11.77,11.77,0,0,1-2.7.21,1.81,1.81,0,0,1-1.66-1.47,2.69,2.69,0,0,1-.13-.66,5.84,5.84,0,0,1,3.61-5.3c1.17-.42,2.39-.7,3.6-1a43.05,43.05,0,0,0,13.3-5.94c1.41-.94,2.73-2,4.09-3.05.63-.48,1.23-1,1.9-1.43a2.63,2.63,0,0,1,4,2.1,3.53,3.53,0,0,1-.9,2.83c-.75.84-1.56,1.63-2.3,2.4a2,2,0,0,0,1,1.35,114.8,114.8,0,0,0,10.2,6.79,120.25,120.25,0,0,0,35.33,13.93,127.55,127.55,0,0,0,15.8,2.47,137.91,137.91,0,0,0,15.65.53A116.1,116.1,0,0,0,155,119.6,120.59,120.59,0,0,0,170.27,116,113,113,0,0,0,198,103.28c.57-.36,1.11-.78,1.66-1.18a.65.65,0,0,0,.07-.9l-2.18-1.62a26.21,26.21,0,0,1-2.18-1.63,3.15,3.15,0,0,1-1-3.4,7,7,0,0,1,5.08-5,2.26,2.26,0,0,1,1.67.14A27.06,27.06,0,0,1,204,91.42a52.8,52.8,0,0,0,11.68,6.23c1.16.45,2.35.83,3.53,1.24.86.3,1.72.58,2.56.93a2.39,2.39,0,0,1,1.46,2.77,7.39,7.39,0,0,1-4,5.6,4.09,4.09,0,0,1-2.31.45c-.79-.06-1.57-.17-2.36-.25a.91.91,0,0,0-.87.85c0,.57,0,1.13,0,1.7.05,1.47.16,2.95.18,4.42a110.93,110.93,0,0,1-4.55,33.94A82.16,82.16,0,0,1,185,188a89.19,89.19,0,0,1-32.37,19A86.3,86.3,0,0,1,135,210.76a82.74,82.74,0,0,1-13.6.4,83.71,83.71,0,0,1-39.09-11.68,68,68,0,0,1-17.9-15.57A90.84,90.84,0,0,1,50,158.19a111,111,0,0,1-5.57-22.07c-.4-2.58-.78-5.16-1-7.76-.72-7.28-.59-14.51,1.58-21.59A1.29,1.29,0,0,0,44.63,105.17Zm11,42.38q.07.36-.12.12l.22-.07a1.5,1.5,0,0,0-.39,1.24,6,6,0,0,0,.24,1A88.57,88.57,0,0,0,67.47,173a55.6,55.6,0,0,0,8.91,9.75,1.49,1.49,0,0,0,1.17.52,2.09,2.09,0,0,0,.1-.64c-1.23-7.25-2.33-14.52-3.14-21.83a5.37,5.37,0,0,0-.19-1.34,2.28,2.28,0,0,0-.77-1,15,15,0,0,0-2.11-1.09A83.82,83.82,0,0,1,62,152.06,37.12,37.12,0,0,1,55.64,147.55Zm23.82,37.39a3.13,3.13,0,0,0,1.39,1.53,76.06,76.06,0,0,0,18.33,10.32,76.87,76.87,0,0,0,28.27,5.32A82.37,82.37,0,0,0,147,199.67a75.13,75.13,0,0,0,29.74-14.51,65.78,65.78,0,0,0,12.19-12.78,82.5,82.5,0,0,0,14.38-35.3,114.68,114.68,0,0,0,1.32-23.41q0-.85-.09-1.7c-.08-1.15-.57-1.45-1.48-.92-.49.29-1,.57-1.46.88a124.51,124.51,0,0,1-24,12c-2.13.79-4.29,1.47-6.44,2.19l-2.58.86a1.11,1.11,0,0,0-.74,1c.06.79.1,1.59.23,2.36a123.62,123.62,0,0,1,1.76,21.35c0,1.36,0,2.72,0,4.09A8.74,8.74,0,0,0,170,157a2.36,2.36,0,0,0,1.75-.16c3.65-1.23,7.31-2.43,10.88-3.93,4-1.68,7.89-3.48,11.72-5.47,1-.52,2-1,3.08-1.44a1.62,1.62,0,0,1,2.34,1.84,5,5,0,0,1-.35,1.3,4.82,4.82,0,0,1-2.4,2.31,149.22,149.22,0,0,1-15.94,7.67q-4.28,1.69-8.65,3.1a6.29,6.29,0,0,0-2.41,1.06,4.1,4.1,0,0,0-.37,2c-.4,6-.47,12-.58,18,0,.91,0,1.82-.08,2.72a5.1,5.1,0,0,1-3.19,4.47,3.55,3.55,0,0,1-2,.28,2,2,0,0,1-1.5-1.23,8.87,8.87,0,0,1-.27-3q.25-9.19.47-18.38c0-.45,0-.91,0-1.36,0-1.15-.34-1.5-1.37-1.33s-1.79.32-2.67.53a142,142,0,0,1-15.11,2.52c-4.74.56-9.5.81-14.27,1-1.13,0-2.27.08-3.4.14a1,1,0,0,0-1,1.1c.11,2,.21,4.08.36,6.11.36,4.75.76,9.5,1.13,14.25.11,1.36.23,2.72.27,4.08a5.37,5.37,0,0,1-4.1,5.54,1.63,1.63,0,0,1-1.89-1.05,8.36,8.36,0,0,1-.29-1.66q-.73-12.58-1.43-25.15c0-.68-.06-1.36-.11-2-.08-1-.48-1.49-1.4-1.6l-.68-.07c-4-.25-7.9-.8-11.83-1.4a125.28,125.28,0,0,1-15.9-3.7c-1.52-.44-3-1-4.54-1.44-.32-.1-.65-.18-1-.26a.71.71,0,0,0-.88.74c.38,2.58.76,5.16,1.19,7.73s.86,4.92,1.29,7.38a4.58,4.58,0,0,1-.83,3.54A6.25,6.25,0,0,1,81,184.3C80.48,184.48,80,184.72,79.46,184.94Zm83.07-25.59a1.77,1.77,0,0,0,.19-.39,15,15,0,0,0,.21-1.67,142.34,142.34,0,0,0-.77-19.34c-.27-2.59-.79-5.15-1.21-7.72a1.15,1.15,0,0,0-1.41-1.08c-.22,0-.44.1-.66.14-4,.69-8,1.5-12.07,2a117.24,117.24,0,0,1-19,.83c-1.24-.06-2.49-.12-3.74-.14a1.24,1.24,0,0,0-1.45,1.43c0,.68,0,1.36.06,2,.29,6.67.56,13.35.89,20,.12,2.37.35,4.74.54,7.11a1.1,1.1,0,0,0,1.16,1c3.51,0,7,.18,10.53-.11s7.22-.53,10.82-1q6.91-.95,13.71-2.43C161.1,159.83,161.85,159.55,162.54,159.35Zm-44.68-12.07h0c0-2,0-4.08,0-6.12,0-2.72,0-5.44-.09-8.15,0-1.05-.37-1.46-1.32-1.66-.66-.14-1.34-.24-2-.35-2.9-.49-5.82-.91-8.7-1.47a110.17,110.17,0,0,1-18.92-5.39c-1.06-.41-2.13-.77-3.2-1.14a.77.77,0,0,0-.83.41c-.26,1-.59,2-.76,3a88.53,88.53,0,0,0-1.37,12.82,122.61,122.61,0,0,0,.65,15.26,1.61,1.61,0,0,0,1.21,1.47c3.12,1,6.23,2.06,9.38,3a114.8,114.8,0,0,0,14.59,3.18,81.53,81.53,0,0,0,10.14,1,3.2,3.2,0,0,0,1-.1.73.73,0,0,0,.46-.45,13.18,13.18,0,0,0,.13-2C118.09,156.11,118,151.7,117.86,147.28Zm-67-43.35a13.79,13.79,0,0,0-1.06,3.52,50.6,50.6,0,0,0-.85,10.48,90.48,90.48,0,0,0,2.93,19.79,4.44,4.44,0,0,0,1.79,2.74,122.92,122.92,0,0,0,17.69,10.78c.51.25,1,.45,1.56.66.27.11.77-.16.78-.42,0-1.47.1-2.94.1-4.41a97,97,0,0,1,2.52-22.24,9.34,9.34,0,0,1,1.4-3.42.83.83,0,0,0-.34-1.13c-1.11-.56-2.24-1.09-3.34-1.67-1.61-.84-3.22-1.68-4.79-2.57A118.66,118.66,0,0,1,53,104.94a10.92,10.92,0,0,0-1.39-1C51.4,103.88,51.14,103.94,50.86,103.93Z"/><path d="M135,51a12.4,12.4,0,0,1,9.9-12.14,7.63,7.63,0,0,1,7.88,2.71A12,12,0,0,1,154,55.18a17.67,17.67,0,0,1-6.19,6.16,5.12,5.12,0,0,1-.61.3,6.79,6.79,0,0,1-7.89-1.08A12,12,0,0,1,135,51Z"/><path d="M104.39,41a7,7,0,0,1,3.85,1.15,13.33,13.33,0,0,1,5.65,7,12.15,12.15,0,0,1-4.69,13.78,11.74,11.74,0,0,1-5.66,2.11A7.19,7.19,0,0,1,97,62.21a9.82,9.82,0,0,1-2.07-5.3,14.25,14.25,0,0,1,0-3A22.12,22.12,0,0,1,98.09,45a8.56,8.56,0,0,1,3.38-3.25A5.22,5.22,0,0,1,104.39,41Z"/></g></g></svg>