<svg xmlns="http://www.w3.org/2000/svg" viewBox="0 0 256.71 251.54"><title>moderate</title><g id="Layer_2" data-name="Layer 2"><g id="Layer_1-2" data-name="Layer 1"><path d="M0,133.16c.28-11,1.08-20.39,3.2-29.61a133.21,133.21,0,0,1,13.67-35.8,141.24,141.24,0,0,1,7.78-12.39A126.14,126.14,0,0,1,36.39,41.22,149.74,149.74,0,0,1,50.66,28.08,132.5,132.5,0,0,1,64.3,18.5,129.25,129.25,0,0,1,87.55,7.25a116.49,116.49,0,0,1,18-5A122.59,122.59,0,0,1,128.93,0a112.79,112.79,0,0,1,11.56.58c3.62.37,7.2.94,10.77,1.62A116.73,116.73,0,0,1,169.59,7.3a126.86,126.86,0,0,1,17.63,8.06,53.24,53.24,0,0,0,5.85,2.75,97.45,97.45,0,0,1,19,10.5,100,100,0,0,1,28.65,31A108.48,108.48,0,0,1,254,93.76a125.24,125.24,0,0,1,2.62,30.45,138,138,0,0,1-1.45,14.9,135.63,135.63,0,0,1-10.51,35.81,134.64,134.64,0,0,1-42.82,53.28,121.21,121.21,0,0,1-21.4,12.55,116.29,116.29,0,0,1-26.51,8.51c-4.23.82-8.51,1.35-12.81,1.79a170.11,170.11,0,0,1-20.08.37,106.76,106.76,0,0,1-11.52-1,143.36,143.36,0,0,1-20.32-4.17,125.31,125.31,0,0,1-43.88-21.91A116.75,116.75,0,0,1,25.74,205,119.31,119.31,0,0,1,9.48,177.95a112.63,112.63,0,0,1-6.93-22A102.19,102.19,0,0,1,.79,145.17C.34,140.65.18,136.11,0,133.16ZM160.57,14.86a3.65,3.65,0,0,0-.63-.42c-.53-.2-1.07-.38-1.62-.53a123,123,0,0,0-18-3.73,102.69,102.69,0,0,0-11.88-.82,111.83,111.83,0,0,0-21.35,1.76,116.4,116.4,0,0,0-19.05,5.07A121.35,121.35,0,0,0,59.83,31a120.08,120.08,0,0,0-39.7,48.83A116.24,116.24,0,0,0,10,121.64,108.83,108.83,0,0,0,11,143a110.51,110.51,0,0,0,30.83,62A109.37,109.37,0,0,0,63.7,222.3a122.93,122.93,0,0,0,26.71,11.82,136.2,136.2,0,0,0,24.22,5.42c3.38.41,6.77.82,10.16,1a132.47,132.47,0,0,0,19.39-.41,117.31,117.31,0,0,0,15.45-2.51,103.7,103.7,0,0,0,27-10.23,109.57,109.57,0,0,0,23.12-17.28,120.78,120.78,0,0,0,13.51-15.75,115.62,115.62,0,0,0,15.72-30.06A125.69,125.69,0,0,0,246,126.64a127.76,127.76,0,0,0-.28-14.29A106,106,0,0,0,241.85,91a99.5,99.5,0,0,0-8.68-21,98.2,98.2,0,0,0-32.3-34.43q-4.42-2.89-8.85-5.75a18.79,18.79,0,0,0-2.33-1.4c-2.79-1.27-5.54-2.62-8.41-3.7A125.11,125.11,0,0,0,164,19.37a20,20,0,0,1-2-.55,2,2,0,0,1-1.51-2C160.56,16.13,160.57,15.46,160.57,14.86Z"/><path d="M39,146.51a11.91,11.91,0,0,0-2.3,2.57,9.86,9.86,0,0,1-2.83,2.41,5.51,5.51,0,0,1-3,.64,3.42,3.42,0,0,1-3.14-2.67,5.94,5.94,0,0,1,.92-4.87,96.49,96.49,0,0,1,8.62-10.54c1.19-1.22,2.41-2.4,3.62-3.61a6.38,6.38,0,0,1,3.25-1.74A3.73,3.73,0,0,1,48.82,133a7.17,7.17,0,0,1-1.62,3.69c-.65.79-1.38,1.5-2,2.28a9.18,9.18,0,0,0-.69,1.05c.77,1.14,1.48,2.16,2.15,3.21a112.74,112.74,0,0,0,14.68,18.29,105.69,105.69,0,0,0,15.86,13.37,92.54,92.54,0,0,0,21.69,11.28,83.08,83.08,0,0,0,23.57,5l4.42.25c.68,0,1.36.09,2,.06a86.57,86.57,0,0,0,22.79-3.71,80.54,80.54,0,0,0,12.22-5.15A86.57,86.57,0,0,0,190.42,161a111.72,111.72,0,0,0,10.24-14.43,1.1,1.1,0,0,0-.21-1.52c-.91-.86-1.84-1.69-2.74-2.56s-1.78-1.75-2.62-2.68a12.61,12.61,0,0,0-2.26-2,1.36,1.36,0,0,1-.48-2,3,3,0,0,1,2.76-1.69,18.18,18.18,0,0,1,7.94,1.59c1.23.58,2.44,1.2,3.65,1.84,1.71.9,3.39,1.85,5.1,2.74a37.14,37.14,0,0,0,5.92,2.6,11.21,11.21,0,0,1,2.15,1,2.55,2.55,0,0,1,1.15,2.65,8.35,8.35,0,0,1-5.35,6.15,4,4,0,0,1-2.68,0c-1.09-.32-2.15-.72-3.23-1.07a1.17,1.17,0,0,0-1.46.51c-.3.48-.6,1-.87,1.46a100.16,100.16,0,0,1-11.34,16.13A99.67,99.67,0,0,1,174,189.28a88.82,88.82,0,0,1-18.9,9.3A86.38,86.38,0,0,1,135.91,203c-1.69.19-3.4.23-5.1.3a88.71,88.71,0,0,1-30.55-4.18,95.48,95.48,0,0,1-21-9.59A108.23,108.23,0,0,1,63,177.18,111.39,111.39,0,0,1,44.8,155.63q-2.53-3.84-4.72-7.89A2.85,2.85,0,0,0,39,146.51Z"/><path d="M164.27,77a12.15,12.15,0,0,1-2.8,8,18.92,18.92,0,0,1-4.54,4,8.55,8.55,0,0,1-1.82.9,6.55,6.55,0,0,1-5.87-.55,11.16,11.16,0,0,1-4.47-5.4,12.73,12.73,0,0,1,4.16-15.19,10.91,10.91,0,0,1,5.63-2.2,7.28,7.28,0,0,1,6.68,2.54A11.24,11.24,0,0,1,164.27,77Z"/><path d="M83,78.7a21.55,21.55,0,0,1,3.73-11.09,8,8,0,0,1,.87-1,6.4,6.4,0,0,1,8-1.42,12.92,12.92,0,0,1,6.52,7.9,11.52,11.52,0,0,1-.43,7.66,11.89,11.89,0,0,1-8.61,7.45,7.2,7.2,0,0,1-4,.09,7.54,7.54,0,0,1-4.48-3.4A10.76,10.76,0,0,1,83,78.7Z"/></g></g></svg>