<svg xmlns="http://www.w3.org/2000/svg" viewBox="0 0 256.98 248.84"><title>unhealty</title><g id="Layer_2" data-name="Layer 2"><g id="Layer_1-2" data-name="Layer 1"><path d="M53.7,29.42a18.34,18.34,0,0,0-3.42,1.49,11.06,11.06,0,0,1-1.93.63,2.33,2.33,0,0,1-2.61-1.68,6.57,6.57,0,0,1,.21-4,8.93,8.93,0,0,1,4-4.91c4.2-2.5,8.47-4.85,12.89-6.92A155.8,155.8,0,0,1,80.49,6.91a146.44,146.44,0,0,1,18.8-4.73c3.91-.73,7.85-1.24,11.79-1.69,2.7-.31,5.44-.41,8.16-.46a158.89,158.89,0,0,1,18.71.68,124.14,124.14,0,0,1,15.78,2.57A134.8,134.8,0,0,1,176,10.48a138.71,138.71,0,0,1,52.74,39.29A125.06,125.06,0,0,1,248.6,82.55,111.41,111.41,0,0,1,254.79,103a105.12,105.12,0,0,1-2.86,53.45A122.89,122.89,0,0,1,242.68,178,125.7,125.7,0,0,1,235.8,189a130,130,0,0,1-22,24.53,143.7,143.7,0,0,1-28.08,19.12,148,148,0,0,1-22.88,9.62,124.13,124.13,0,0,1-15.5,3.92c-3,.56-6,1.12-9.06,1.51a122.85,122.85,0,0,1-23.44,1A127.75,127.75,0,0,1,93,245.4a113.1,113.1,0,0,1-14.28-4.48A122,122,0,0,1,25.8,201.64,121.35,121.35,0,0,1,5.76,164,108.29,108.29,0,0,1,1.54,146.8a117.57,117.57,0,0,1-1-30.19A119,119,0,0,1,6.32,90.06,107.27,107.27,0,0,1,16.74,68.31,122.6,122.6,0,0,1,31.17,49.38,125.82,125.82,0,0,1,50,32.66c1.2-.85,2.35-1.78,3.51-2.7.13-.1.1-.4.16-.6l1.95-.25c-.29,0-.32-.05-.11-.18l0,.26C54.9,29.18,54.23,28.77,53.7,29.42ZM125.56,236a85.31,85.31,0,0,0,15.76-.93,111,111,0,0,0,17.62-3.78,135.14,135.14,0,0,0,42.42-21.19,118.25,118.25,0,0,0,21.87-21.35,103.71,103.71,0,0,0,9-13.64A90.92,90.92,0,0,0,240.46,155,96.31,96.31,0,0,0,243.84,127c0-1.81-.25-3.62-.37-5.43a98.88,98.88,0,0,0-3.32-19.77A110.13,110.13,0,0,0,228.72,74.6a123.86,123.86,0,0,0-13.21-18.14A118.82,118.82,0,0,0,190,34.59a126.84,126.84,0,0,0-21.77-11.18,132.7,132.7,0,0,0-23.48-6.91q-4.51-.9-9.07-1.48a38.54,38.54,0,0,0-5.77-.35,137.61,137.61,0,0,0-19.31,1.78,139.08,139.08,0,0,0-27.9,7.47,124,124,0,0,0-33.29,19A105.12,105.12,0,0,0,18.77,83.53,100.76,100.76,0,0,0,11,117.19a97.47,97.47,0,0,0,.37,16,112.61,112.61,0,0,0,4.15,20.66,111.41,111.41,0,0,0,16.1,32.87,117.58,117.58,0,0,0,34,32A113.72,113.72,0,0,0,84.19,228a111.76,111.76,0,0,0,25.58,6.87A92.79,92.79,0,0,0,121.28,236C122.87,236,124.46,236,125.56,236Z"/><path d="M181.46,175.61l-118,1.63c-3.73,0-9.09-3-9.09-6.72h0c0-3.73,7-4.75,10.75-4.75l128-2a6.75,6.75,0,0,1,6.75,6.75h0C199.88,174.26,185.19,175.61,181.46,175.61Z"/><path d="M165.13,100a12.15,12.15,0,0,1-2.8,8,18.92,18.92,0,0,1-4.54,4,8.55,8.55,0,0,1-1.82.9,6.55,6.55,0,0,1-5.87-.55,11.16,11.16,0,0,1-4.47-5.4,12.73,12.73,0,0,1,4.16-15.19,10.91,10.91,0,0,1,5.63-2.2,7.28,7.28,0,0,1,6.68,2.54A11.24,11.24,0,0,1,165.13,100Z"/><path d="M83.82,101.79A21.55,21.55,0,0,1,87.55,90.7a8,8,0,0,1,.87-1,6.4,6.4,0,0,1,8-1.42,12.92,12.92,0,0,1,6.52,7.9,11.52,11.52,0,0,1-.43,7.66,11.89,11.89,0,0,1-8.61,7.45,7.2,7.2,0,0,1-4,.09,7.54,7.54,0,0,1-4.48-3.4A10.76,10.76,0,0,1,83.82,101.79Z"/></g></g></svg>