<svg xmlns="http://www.w3.org/2000/svg" viewBox="0 0 249.21 256.27"><title>unselect</title><g id="Layer_2" data-name="Layer 2"><g id="Layer_1-2" data-name="Layer 1"><path d="M115.52,3.11a1.7,1.7,0,0,0,1.34.11c1.55-.37,3.08-.81,4.64-1.1A111.68,111.68,0,0,1,132.61.52C136,.24,139.4,0,142.81,0a93.86,93.86,0,0,1,28.52,4.24,95.93,95.93,0,0,1,24,11.17,108.47,108.47,0,0,1,18,14.48,116.88,116.88,0,0,1,14,17.09,134.16,134.16,0,0,1,14.67,29.11,122.88,122.88,0,0,1,4.48,16.05c.78,3.55,1.36,7.13,1.84,10.73.21,1.57.24,3.17.38,4.75a114.82,114.82,0,0,1-.1,21.41,117,117,0,0,1-5.26,25.27,150.09,150.09,0,0,1-11.46,25.78,143.56,143.56,0,0,1-13,19.53,149.57,149.57,0,0,1-21.73,22.5,167.76,167.76,0,0,1-19.6,14.13,156.65,156.65,0,0,1-15.94,8.44,136.22,136.22,0,0,1-24.07,8.39,106.23,106.23,0,0,1-14.07,2.48c-3.5.4-7,.66-10.53.72A102.53,102.53,0,0,1,94.67,255a92.07,92.07,0,0,1-21.81-6.46,102,102,0,0,1-13.53-7.16A123.48,123.48,0,0,1,36,222.59,133.16,133.16,0,0,1,19.6,201.79,128.1,128.1,0,0,1,3.79,166.15,100.69,100.69,0,0,1,.3,145c-.16-2.95-.35-5.89-.28-8.84a126.62,126.62,0,0,1,1.65-18.29,141.77,141.77,0,0,1,3.18-14.28,133.18,133.18,0,0,1,6.22-17.28A144.23,144.23,0,0,1,23.19,63.91a153.84,153.84,0,0,1,15.5-19.84c3.41-3.66,6.92-7.2,10.65-10.54a150,150,0,0,1,21-15.66A132.74,132.74,0,0,1,99.28,4.41c4.53-1.48,9.18-2.56,13.83-3.61a5.1,5.1,0,0,1,1,0,1.09,1.09,0,0,1,1,.74C115.3,2,115.4,2.58,115.52,3.11Zm-38.78,17c.66.21,1.17-.34,1.77-.35q-.36.15-.11-.1l.06.22-1.79.32C76.76,20.22,76.71,20.13,76.74,20.11ZM75,22c-1.08-.28-1.7.33-2.21,1.15a2,2,0,0,0-2,1.37A1.82,1.82,0,0,0,69.2,25a141.43,141.43,0,0,0-15,11.77,147.48,147.48,0,0,0-29.5,36.34,123.48,123.48,0,0,0-15,40.32A109.56,109.56,0,0,0,8,130a95.09,95.09,0,0,0,1,16.29,117.08,117.08,0,0,0,12.71,37.54,125.35,125.35,0,0,0,24.14,31.91,113.89,113.89,0,0,0,24.61,18.1,98.05,98.05,0,0,0,40.86,11.9A90.74,90.74,0,0,0,137,243.45a103.3,103.3,0,0,0,16.17-5.24,152,152,0,0,0,23-11.8,149,149,0,0,0,16-11.57,139.4,139.4,0,0,0,17.38-17.25,122.68,122.68,0,0,0,14.48-21c.76-1.39,1.55-2.77,2.24-4.2a125.54,125.54,0,0,0,9.29-25.9,114.23,114.23,0,0,0,2.72-18.5c.28-4.08.27-8.17.13-12.25a101.68,101.68,0,0,0-1.74-15.89,117.08,117.08,0,0,0-7.9-25.64A114.07,114.07,0,0,0,208.9,43.48a102.69,102.69,0,0,0-20.67-17.61,92.73,92.73,0,0,0-23.41-10.81c-2.28-.68-4.6-1.25-6.93-1.76a74.62,74.62,0,0,0-14.5-1.89c-3.18-.07-6.35,0-9.53.06a63.61,63.61,0,0,0-9.14,1,114.7,114.7,0,0,0-20.39,5.35A126.54,126.54,0,0,0,73.45,34.13,106.94,106.94,0,0,0,53.91,52.52a104.1,104.1,0,0,0-7.4,10.19,20.38,20.38,0,0,1-1.75,2.51,5.74,5.74,0,0,1-5.11,2.18,2.71,2.71,0,0,1-2.47-3.08,7.2,7.2,0,0,1,1-2.87,108.48,108.48,0,0,1,8.37-12.82A112.55,112.55,0,0,1,65.73,28.91c1.51-1.2,3-2.38,4.56-3.57a.93.93,0,0,0,.42-.86,1.76,1.76,0,0,0,2-1.4c1,.08,1.53-.65,2.18-1.18C75.05,21.8,74.91,22,75,22Z"/><path d="M60.7,173.46c-.59-.66-1.06-1.15-1.49-1.66a33.9,33.9,0,0,1-8.43-22.45,51.8,51.8,0,0,1,1-9.81,4.48,4.48,0,0,1,4-3.64,1.42,1.42,0,0,1,1.57,1.4c0,.68-.07,1.36-.1,2a46.69,46.69,0,0,0,.48,10.85,31,31,0,0,0,6.7,14.32,33.26,33.26,0,0,0,8.51,7.25,49.6,49.6,0,0,0,18.41,6.76c2.36.36,4.71.71,7.08,1a33.69,33.69,0,0,0,12.51-.75,76.73,76.73,0,0,0,28-13.43,52.28,52.28,0,0,0,9.28-9.45,138.52,138.52,0,0,0,14.44-23c.36-.71.67-1.44,1-2.17s0-1.2-.62-1.17-1.36.11-2,.11a22,22,0,0,1-7.41-.8,2.33,2.33,0,0,1-1.51-2.05,3.43,3.43,0,0,1,2-3.3,9.75,9.75,0,0,1,3.65-.74A36,36,0,0,0,174,118.55c1.32-.65,2.56-1.45,3.83-2.21a11.78,11.78,0,0,1,3-1.53,3.09,3.09,0,0,1,1.33-.06,2.3,2.3,0,0,1,1.67,3.15,6.5,6.5,0,0,1-1.86,2.4,40.52,40.52,0,0,1-4.92,3.65c-3,1.87-2.66,1.46-1.89,4.54A73.7,73.7,0,0,1,177.45,148a70.5,70.5,0,0,1-3.56,21.06A75.7,75.7,0,0,1,167.58,183a66.19,66.19,0,0,1-8.11,10.91,67.22,67.22,0,0,1-21.53,15.81,50.3,50.3,0,0,1-23.77,4.9,51.09,51.09,0,0,1-7.44-.81,62.1,62.1,0,0,1-16.55-5,54.8,54.8,0,0,1-13.58-9.58,118.13,118.13,0,0,1-10-10.7c-1.86-2.29-3.76-4.55-5.64-6.82-.43-.53-.85-1.07-1.28-1.59a3.66,3.66,0,0,1-.35-4.7C59.72,174.84,60.12,174.29,60.7,173.46Zm57,32.47c5.22.11,11.42-1.54,17.37-4.29a57,57,0,0,0,12.31-7.86,53.15,53.15,0,0,0,14-17.82,60.28,60.28,0,0,0,6-24.62c.07-1.92,0-3.86-.1-5.78a4.59,4.59,0,0,0-.38-1.27.32.32,0,0,0-.55-.1,7.3,7.3,0,0,0-.8,1.06A105.59,105.59,0,0,1,150.16,166,64.89,64.89,0,0,1,133.29,179a73.42,73.42,0,0,1-25.32,8.6,48.14,48.14,0,0,1-10.53.13c-1.58-.14-3.17-.27-4.74-.49a83.6,83.6,0,0,1-11.39-2c-1.85-.53-3.67-1.19-5.5-1.77-.07,0-.22.08-.27.17a.33.33,0,0,0,0,.29,8.64,8.64,0,0,0,.74,1.12,69,69,0,0,0,12,11.06,52.29,52.29,0,0,0,16.36,8.17A43.74,43.74,0,0,0,117.74,205.93Z"/><path d="M161.37,62a9.25,9.25,0,0,1-1,4.25,6.14,6.14,0,0,1-2,2.3,6.61,6.61,0,0,1-.87.53c-6.93,3.53-12.82,8.48-18.59,13.61-3.13,2.78-6.3,5.53-9.47,8.27a15.64,15.64,0,0,1-1.9,1.42,2.1,2.1,0,0,1-3.11-1,6.68,6.68,0,0,1,1.1-7,30.72,30.72,0,0,1,2.67-2.62l4.66-4.47c2.95-2.82,5.88-5.65,8.85-8.44a72,72,0,0,1,8.53-6.73,43.12,43.12,0,0,1,6.52-3.63A11.92,11.92,0,0,1,158,58a2.38,2.38,0,0,1,2.64,1.07A5.44,5.44,0,0,1,161.37,62Z"/><path d="M90.52,83.32a12.09,12.09,0,0,1-9.46,12.33,7.41,7.41,0,0,1-8.44-3.52,11.09,11.09,0,0,1-1.51-6.53,21.56,21.56,0,0,1,2.63-8.73,11.93,11.93,0,0,1,2.24-3,6.59,6.59,0,0,1,7.56-1.21,9.3,9.3,0,0,1,3,2.18,26.82,26.82,0,0,1,2.14,2.64A8.68,8.68,0,0,1,90.52,83.32Z"/></g></g></svg>