<svg xmlns="http://www.w3.org/2000/svg" viewBox="0 0 255.9 256.81"><title>very-unhealty</title><g id="Layer_2" data-name="Layer 2"><g id="Layer_1-2" data-name="Layer 1"><path d="M126.88,256.81a146,146,0,0,1-18.6-1.57c-4.94-.74-9.84-1.7-14.68-2.91A123.46,123.46,0,0,1,77.44,247a120.19,120.19,0,0,1-17.37-8.59,107.45,107.45,0,0,1-14.61-10.56,126.81,126.81,0,0,1-26.91-33.14A144.75,144.75,0,0,1,6.94,169a140.26,140.26,0,0,1-4.38-16.43A132.61,132.61,0,0,1,.2,134.07a140,140,0,0,1,.38-19.72c.25-3.27.84-6.52,1.4-9.76A111.59,111.59,0,0,1,6,88.41,128.52,128.52,0,0,1,16.71,64.19,143.48,143.48,0,0,1,41.83,32.58c.41-.39.84-.76,1.29-1.11a4.47,4.47,0,0,1,3.12-1.16A3.72,3.72,0,0,0,49,29.19c2.66-2.12,5.3-4.28,8-6.3A123.9,123.9,0,0,1,86.52,6.83a103.45,103.45,0,0,1,20-5.39A120.3,120.3,0,0,1,133.68.28a94.87,94.87,0,0,1,11.14,1.4,128.53,128.53,0,0,1,12.94,2.93A138.93,138.93,0,0,1,177.5,12a137.18,137.18,0,0,1,35.35,24,140.29,140.29,0,0,1,28.64,36.56A119.51,119.51,0,0,1,254.06,108a116.1,116.1,0,0,1,1.83,19.62,110.85,110.85,0,0,1-6.21,37.42A123.6,123.6,0,0,1,240.87,185a153.64,153.64,0,0,1-12.08,18.52,169.52,169.52,0,0,1-15.54,17.6,144.64,144.64,0,0,1-14,11.95,124.14,124.14,0,0,1-22.43,13.48,106.44,106.44,0,0,1-15.3,5.68A111.52,111.52,0,0,1,141.89,256,128.31,128.31,0,0,1,126.88,256.81Zm1.46-11.74a127.49,127.49,0,0,0,20.57-1.28A112.35,112.35,0,0,0,170,238.47a103.2,103.2,0,0,0,28.52-15.67,132.34,132.34,0,0,0,19.75-19.18,128.55,128.55,0,0,0,21.85-36.28,102,102,0,0,0,6.9-32.13,92.5,92.5,0,0,0-.72-16,102.24,102.24,0,0,0-2-11.73,127.69,127.69,0,0,0-30.41-57,143.64,143.64,0,0,0-22.72-20,131.9,131.9,0,0,0-29-15.65,116.24,116.24,0,0,0-15.25-4.77,119.38,119.38,0,0,0-12.73-2.27A98.53,98.53,0,0,0,124,7a104.05,104.05,0,0,0-18,1.23,109.27,109.27,0,0,0-20.4,5.25,117.56,117.56,0,0,0-29.5,16.06C54.21,31,52.36,32.49,50.5,34A2.16,2.16,0,0,0,49.69,35c-.4,1.89-1.67,3.18-2.88,4.54-2,2.2-4,4.36-5.88,6.61A126.45,126.45,0,0,0,17.25,88a109.49,109.49,0,0,0-5.59,33.42A116.47,116.47,0,0,0,13,139a123.41,123.41,0,0,0,6.42,26,149,149,0,0,0,6.06,14.42A134.12,134.12,0,0,0,37.91,199.8a107.58,107.58,0,0,0,22.31,22.31A115.36,115.36,0,0,0,93.1,239,118.53,118.53,0,0,0,128.33,245.07Z"/><path d="M86.62,166.47a2.7,2.7,0,0,0,.95-1.79,72,72,0,0,1,2.38-7.81,55,55,0,0,1,4-9,34.35,34.35,0,0,1,5.67-7.62A16.78,16.78,0,0,1,104,137a12.18,12.18,0,0,1,15.15,2.88,22.13,22.13,0,0,1,2.26,3,64.38,64.38,0,0,1,3.2,5.61c2.54,5.2,5,10.45,7.47,15.67.83,1.74,1.78,3.42,2.69,5.12a.7.7,0,0,0,1.14.11,13.33,13.33,0,0,0,.89-1c1.35-1.83,2.74-3.62,4-5.51,2.2-3.3,4.33-6.66,6.47-10,1.65-2.58,3.26-5.19,4.9-7.78A100.66,100.66,0,0,1,161,133a54.37,54.37,0,0,1,13.55-11.27,7.63,7.63,0,0,1,4.55-1.11,4,4,0,0,1,3.17,1.73c.51.75,1,1.53,1.43,2.32q5,8.92,9.93,17.84,4,7.13,8,14.25c.44.79.89,1.58,1.32,2.38a6.2,6.2,0,0,1-.08,6.19,13.08,13.08,0,0,1-7,6.1,4.64,4.64,0,0,1-1.31.34,67.65,67.65,0,0,1-7.81.39,115.06,115.06,0,0,1-17.82-2.69c-4.55-.95-9.12-1.85-13.68-2.76-.56-.11-1.12-.16-1.68-.27a2.21,2.21,0,0,0-2.6,1.08c-.46.78-1,1.51-1.53,2.25a96.29,96.29,0,0,1-12.82,15,13.17,13.17,0,0,1-2.7,2.05,5.42,5.42,0,0,1-7.24-1.6,51.59,51.59,0,0,1-5.16-9.18c-1.54-3.66-3-7.34-4.53-11a74.22,74.22,0,0,0-4.25-9.27c-1-1.76-2.15-3.47-3.25-5.19a4.27,4.27,0,0,0-1.72-1.61,1.94,1.94,0,0,0-1.95.05,3.82,3.82,0,0,0-1,.86,23.29,23.29,0,0,0-1.74,2.51,32.89,32.89,0,0,0-2.57,5.92c-1.43,4.18-2.87,8.37-3.89,12.68q-.43,1.82-1,3.62a8.52,8.52,0,0,1-2.52,4,5.78,5.78,0,0,1-6.64.79c-3.09-1.91-6.22-3.76-9.28-5.7a168,168,0,0,1-21.69-16.42q-1.65-1.47-3.2-3.05a2.89,2.89,0,0,1-.43-3.46,5.23,5.23,0,0,1,1.55-1.78,2.57,2.57,0,0,1,3.16-.16c.86.55,1.68,1.16,2.49,1.78a137.89,137.89,0,0,0,18.94,12c2.5,1.33,5.1,2.49,7.66,3.7A3.83,3.83,0,0,0,86.62,166.47Zm99.44-5.35h2.11c.24,0,.62-.55.52-.76a8.16,8.16,0,0,0-.43-.92q-6.57-10.7-13.16-21.39a8.38,8.38,0,0,0-.62-.8.9.9,0,0,0-.93-.13c-.37.26-.75.5-1.1.78a44.26,44.26,0,0,0-8.6,9.55c-2.11,3.08-4.06,6.26-6.08,9.4-.18.28-.34.59-.49.89a3,3,0,0,0-.08.33.7.7,0,0,0,.52.73l11.5,1Z"/><path d="M173.56,86.17c-1-.12-2-.21-3-.37a40.77,40.77,0,0,0-16.52.79,54.73,54.73,0,0,0-6.79,2.17,12.8,12.8,0,0,1-2.6.76,2.69,2.69,0,0,1-3.12-2.41,6.07,6.07,0,0,1,.93-4.23,37.84,37.84,0,0,1,2.46-3.25,81.07,81.07,0,0,1,13.55-12.85,112.53,112.53,0,0,1,20.72-12.31c.93-.43,1.86-.83,2.82-1.18a4.35,4.35,0,0,1,1.33-.2,2,2,0,0,1,1.91,1.64,4.88,4.88,0,0,1-2.21,5A19.12,19.12,0,0,1,180.62,61a100.45,100.45,0,0,0-15,9.38c-1.17.89-2.34,1.8-3.47,2.74-2.1,1.75-2.49,2.24-2.13,2.42,1,.49,2,.09,3,0a55.19,55.19,0,0,1,14.91.7c.45.08.89.16,1.33.28A2.43,2.43,0,0,1,181,79.11a6.81,6.81,0,0,1-.35,1.65,8.86,8.86,0,0,1-3,4A5.82,5.82,0,0,1,173.56,86.17Z"/><path d="M74,82.88a77.21,77.21,0,0,0-8.35-1.55c-3.7-.56-7.42-1-11.12-1.52l-.34,0c-2.31-.35-3-2-1.56-3.92a3.23,3.23,0,0,1,2.87-1.51c1.7.07,3.41,0,5.1.17,5.54.4,11.08.91,16.59,1.63,4.5.59,9,1.39,13.4,2.34q2,.43,4,.94a7.14,7.14,0,0,1,1.58.61A2,2,0,0,1,97.26,82a5.8,5.8,0,0,1-.43,2A8.21,8.21,0,0,1,91,88.71c-6.39,1.54-12.76,3.21-19.13,4.81L60.33,96.42a11.59,11.59,0,0,1-1.66.32,2.45,2.45,0,0,1-2.43-2,6.3,6.3,0,0,1,3-6.35,15.51,15.51,0,0,1,1.88-.79A117,117,0,0,1,72.46,84a5.14,5.14,0,0,0,1.24-.5C73.85,83.41,73.88,83.11,74,82.88Z"/><path d="M128.59,50.45A6.42,6.42,0,0,1,131.25,45c3.85-3,7.65-6,11.73-8.68A42.71,42.71,0,0,1,151.4,32c.63-.24,1.28-.45,1.93-.64A3.38,3.38,0,0,1,157,32.46,8.63,8.63,0,0,1,159.1,40a3.58,3.58,0,0,1-1.66,2.46c-.48.3-1,.57-1.48.83a46.5,46.5,0,0,0-8.47,5.61c-3.15,2.58-6.28,5.19-9.43,7.77a25.12,25.12,0,0,1-2.16,1.63,3.46,3.46,0,0,1-4.37-.4,8,8,0,0,1-1.47-1.84A10.87,10.87,0,0,1,128.59,50.45Z"/><path d="M106.86,53.7a4.05,4.05,0,0,1-.13,1,7.38,7.38,0,0,1-4.92,5.21,2.52,2.52,0,0,1-2.28-.28,11.19,11.19,0,0,1-1.58-1.27q-2.78-2.75-5.51-5.55a65.08,65.08,0,0,0-10.19-9,9.46,9.46,0,0,1-.79-.64,2.32,2.32,0,0,1-.77-1.82A3.75,3.75,0,0,1,80.91,40a7,7,0,0,1,3.82-4.11,3.17,3.17,0,0,1,2.33-.1,14.53,14.53,0,0,1,1.57.66A45.1,45.1,0,0,1,100,43.85a33.94,33.94,0,0,1,6.11,7.26A4.38,4.38,0,0,1,106.86,53.7Z"/></g></g></svg>