<?xml version="1.0" standalone="no"?>
<!DOCTYPE svg PUBLIC "-//W3C//DTD SVG 20010904//EN"
 "http://www.w3.org/TR/2001/REC-SVG-20010904/DTD/svg10.dtd">
<svg version="1.0" xmlns="http://www.w3.org/2000/svg"
 width="1em" height="1em" viewBox="0 0 216.000000 254.000000"
 preserveAspectRatio="xMidYMid meet">

<g transform="translate(0.000000,254.000000) scale(0.100000,-0.100000)"
fill="#3740CA" stroke="none">
<path d="M784 2080 c-71 -25 -121 -59 -177 -119 -69 -73 -101 -148 -101 -236
-1 -68 0 -70 23 -70 23 0 26 6 37 68 17 89 46 147 103 205 55 58 119 90 205
105 223 38 437 -167 411 -393 -18 -153 -145 -294 -285 -316 -23 -4 -114 -7
-202 -8 -138 -1 -162 -3 -171 -18 -8 -12 -7 -21 3 -33 12 -14 37 -16 209 -13
196 3 196 3 262 34 159 76 249 216 249 389 0 189 -110 345 -288 406 -73 25
-207 25 -278 -1z"/>
<path d="M1363 1849 c-7 -7 -13 -16 -13 -20 0 -18 34 -39 64 -39 90 0 203 -78
254 -174 23 -44 27 -63 27 -136 0 -102 -21 -156 -85 -220 -65 -65 -135 -92
-252 -98 -84 -4 -98 -7 -96 -21 2 -12 24 -19 96 -27 75 -10 101 -18 142 -44
108 -69 160 -159 160 -274 0 -169 -166 -309 -327 -276 -95 20 -120 22 -127 11
-41 -66 169 -109 298 -60 77 28 148 96 188 177 30 59 33 76 33 152 0 76 -4 93
-32 151 -30 61 -89 127 -138 154 -16 10 -12 15 33 44 68 43 108 91 146 171 27
57 30 75 30 155 0 80 -3 97 -31 158 -39 82 -111 155 -190 192 -65 31 -161 44
-180 24z"/>
<path d="M1144 1780 c-82 -60 -149 -191 -142 -281 2 -37 7 -45 26 -47 12 -2
24 2 26 10 1 7 10 44 19 81 19 79 63 148 118 185 30 21 38 33 36 52 -3 36 -35
36 -83 0z"/>
<path d="M232 1322 c-8 -5 -12 -20 -10 -33 3 -24 4 -24 173 -31 183 -7 204 -3
190 41 -5 17 -14 21 -54 21 -26 0 -101 3 -167 6 -67 3 -125 1 -132 -4z"/>
<path d="M263 1162 c-7 -7 -13 -17 -13 -21 0 -27 37 -32 246 -34 l219 -2 3 28
c2 16 -2 29 -10 32 -7 2 -107 6 -222 7 -163 2 -213 0 -223 -10z"/>
<path d="M779 1154 c-6 -7 -9 -21 -7 -31 3 -16 19 -19 123 -26 66 -4 165 -6
219 -5 81 3 101 6 110 20 8 13 7 21 -4 32 -21 20 -425 29 -441 10z"/>
<path d="M267 1006 c-36 -37 -11 -56 74 -56 60 0 68 2 74 21 10 30 -3 38 -71
45 -49 5 -63 3 -77 -10z"/>
<path d="M524 995 c-14 -36 2 -43 115 -50 120 -8 145 -1 139 39 -3 20 -10 21
-126 24 -102 2 -123 0 -128 -13z"/>
<path d="M832 994 c-20 -38 2 -54 75 -54 88 0 135 -16 188 -62 57 -51 79 -107
73 -192 -5 -80 -39 -135 -112 -180 -39 -25 -58 -30 -111 -30 -53 0 -72 5 -111
30 -59 36 -103 96 -110 149 -11 83 -13 86 -42 83 -23 -3 -27 -8 -30 -41 -8
-93 74 -217 173 -263 109 -51 247 -24 334 67 142 149 88 404 -104 485 -21 8
-77 18 -125 21 -80 5 -89 4 -98 -13z"/>
<path d="M1030 825 c-17 -21 -7 -100 21 -164 17 -40 26 -51 45 -51 32 0 38 29
14 81 -11 24 -20 62 -20 85 0 57 -32 83 -60 49z"/>
</g>
</svg>
